<?xml version="1.0" encoding="UTF-8"?>
<!DOCTYPE svg PUBLIC "-//W3C//DTD SVG 1.1//EN" "http://www.w3.org/Graphics/SVG/1.1/DTD/svg11.dtd">
<svg xmlns="http://www.w3.org/2000/svg" version="1.1" width="50px" height="50px" style="shape-rendering:geometricPrecision; text-rendering:geometricPrecision; image-rendering:optimizeQuality; fill-rule:evenodd; clip-rule:evenodd" xmlns:xlink="http://www.w3.org/1999/xlink">
<g><path style="opacity:0.612" fill="#000000" d="M 35.5,1.5 C 36.5,1.5 37.5,1.5 38.5,1.5C 38.8956,4.48223 38.2289,7.14889 36.5,9.5C 32.7307,10.6873 29.0641,12.0207 25.5,13.5C 23.1282,12.6372 23.1282,11.4705 25.5,10C 28.7779,9.08072 31.9446,7.91406 35,6.5C 35.4935,4.86586 35.6602,3.19919 35.5,1.5 Z"/></g>
<g><path style="opacity:0.99" fill="#000000" d="M 49.5,16.5 C 49.5,25.1667 49.5,33.8333 49.5,42.5C 32.8333,43.8333 16.1667,43.8333 -0.5,42.5C -0.5,33.8333 -0.5,25.1667 -0.5,16.5C 16.1667,15.1667 32.8333,15.1667 49.5,16.5 Z M 4.5,21.5 C 5.83333,21.5 7.16667,21.5 8.5,21.5C 8.5,22.8333 8.5,24.1667 8.5,25.5C 7.16667,25.5 5.83333,25.5 4.5,25.5C 4.5,24.1667 4.5,22.8333 4.5,21.5 Z M 10.5,21.5 C 11.8333,21.5 13.1667,21.5 14.5,21.5C 14.5,22.8333 14.5,24.1667 14.5,25.5C 13.1667,25.5 11.8333,25.5 10.5,25.5C 10.5,24.1667 10.5,22.8333 10.5,21.5 Z M 16.5,21.5 C 17.8333,21.5 19.1667,21.5 20.5,21.5C 20.5,22.8333 20.5,24.1667 20.5,25.5C 19.1667,25.5 17.8333,25.5 16.5,25.5C 16.5,24.1667 16.5,22.8333 16.5,21.5 Z M 22.5,21.5 C 23.8333,21.5 25.1667,21.5 26.5,21.5C 26.5,22.8333 26.5,24.1667 26.5,25.5C 25.1667,25.5 23.8333,25.5 22.5,25.5C 22.5,24.1667 22.5,22.8333 22.5,21.5 Z M 28.5,21.5 C 29.8333,21.5 31.1667,21.5 32.5,21.5C 32.5,22.8333 32.5,24.1667 32.5,25.5C 31.1667,25.5 29.8333,25.5 28.5,25.5C 28.5,24.1667 28.5,22.8333 28.5,21.5 Z M 34.5,21.5 C 35.8333,21.5 37.1667,21.5 38.5,21.5C 38.5,22.8333 38.5,24.1667 38.5,25.5C 37.1667,25.5 35.8333,25.5 34.5,25.5C 34.5,24.1667 34.5,22.8333 34.5,21.5 Z M 40.5,21.5 C 41.8333,21.5 43.1667,21.5 44.5,21.5C 44.5,22.8333 44.5,24.1667 44.5,25.5C 43.1667,25.5 41.8333,25.5 40.5,25.5C 40.5,24.1667 40.5,22.8333 40.5,21.5 Z M 4.5,27.5 C 6.83333,27.5 9.16667,27.5 11.5,27.5C 11.5,28.8333 11.5,30.1667 11.5,31.5C 9.16667,31.5 6.83333,31.5 4.5,31.5C 4.5,30.1667 4.5,28.8333 4.5,27.5 Z M 13.5,27.5 C 14.8333,27.5 16.1667,27.5 17.5,27.5C 17.5,28.8333 17.5,30.1667 17.5,31.5C 16.1667,31.5 14.8333,31.5 13.5,31.5C 13.5,30.1667 13.5,28.8333 13.5,27.5 Z M 19.5,27.5 C 20.8333,27.5 22.1667,27.5 23.5,27.5C 23.5,28.8333 23.5,30.1667 23.5,31.5C 22.1667,31.5 20.8333,31.5 19.5,31.5C 19.5,30.1667 19.5,28.8333 19.5,27.5 Z M 25.5,27.5 C 26.8333,27.5 28.1667,27.5 29.5,27.5C 29.5,28.8333 29.5,30.1667 29.5,31.5C 28.1667,31.5 26.8333,31.5 25.5,31.5C 25.5,30.1667 25.5,28.8333 25.5,27.5 Z M 31.5,27.5 C 32.8333,27.5 34.1667,27.5 35.5,27.5C 35.5,28.8333 35.5,30.1667 35.5,31.5C 34.1667,31.5 32.8333,31.5 31.5,31.5C 31.5,30.1667 31.5,28.8333 31.5,27.5 Z M 37.5,27.5 C 39.8333,27.5 42.1667,27.5 44.5,27.5C 44.5,28.8333 44.5,30.1667 44.5,31.5C 42.1667,31.5 39.8333,31.5 37.5,31.5C 37.5,30.1667 37.5,28.8333 37.5,27.5 Z M 4.5,33.5 C 5.83333,33.5 7.16667,33.5 8.5,33.5C 8.5,34.8333 8.5,36.1667 8.5,37.5C 7.16667,37.5 5.83333,37.5 4.5,37.5C 4.5,36.1667 4.5,34.8333 4.5,33.5 Z M 10.5,33.5 C 11.8333,33.5 13.1667,33.5 14.5,33.5C 14.5,34.8333 14.5,36.1667 14.5,37.5C 13.1667,37.5 11.8333,37.5 10.5,37.5C 10.5,36.1667 10.5,34.8333 10.5,33.5 Z M 16.5,33.5 C 21.8333,33.5 27.1667,33.5 32.5,33.5C 32.5,34.8333 32.5,36.1667 32.5,37.5C 27.1667,37.5 21.8333,37.5 16.5,37.5C 16.5,36.1667 16.5,34.8333 16.5,33.5 Z M 34.5,33.5 C 35.8333,33.5 37.1667,33.5 38.5,33.5C 38.5,34.8333 38.5,36.1667 38.5,37.5C 37.1667,37.5 35.8333,37.5 34.5,37.5C 34.5,36.1667 34.5,34.8333 34.5,33.5 Z M 40.5,33.5 C 41.8333,33.5 43.1667,33.5 44.5,33.5C 44.5,34.8333 44.5,36.1667 44.5,37.5C 43.1667,37.5 41.8333,37.5 40.5,37.5C 40.5,36.1667 40.5,34.8333 40.5,33.5 Z"/></g>
</svg>
